<mxfile host="app.diagrams.net" modified="2023-07-06T22:34:29.518Z" agent="Mozilla/5.0 (Macintosh; Intel Mac OS X 10.15; rv:109.0) Gecko/20100101 Firefox/114.0" etag="XhiJqBkChaMV9DLiLCyc" version="21.6.1" type="github">
  <diagram name="Page-1" id="qBcJnAieSYzHbmPrM3Ho">
    <mxGraphModel dx="1434" dy="719" grid="0" gridSize="10" guides="1" tooltips="1" connect="1" arrows="1" fold="1" page="1" pageScale="1" pageWidth="850" pageHeight="1100" background="none" math="0" shadow="1">
      <root>
        <mxCell id="0" />
        <mxCell id="1" parent="0" />
        <mxCell id="_5swKXEQVDg7zrb6wojc-31" style="edgeStyle=elbowEdgeStyle;rounded=1;orthogonalLoop=1;jettySize=auto;html=1;dashed=1;" edge="1" parent="1" source="_5swKXEQVDg7zrb6wojc-3" target="_5swKXEQVDg7zrb6wojc-29">
          <mxGeometry relative="1" as="geometry" />
        </mxCell>
        <mxCell id="_5swKXEQVDg7zrb6wojc-42" style="edgeStyle=orthogonalEdgeStyle;rounded=0;orthogonalLoop=1;jettySize=auto;html=1;dashed=1;exitX=0;exitY=0.5;exitDx=0;exitDy=0;endArrow=none;endFill=0;" edge="1" parent="1" source="_5swKXEQVDg7zrb6wojc-33" target="_5swKXEQVDg7zrb6wojc-43">
          <mxGeometry relative="1" as="geometry">
            <mxPoint x="379" y="468" as="targetPoint" />
          </mxGeometry>
        </mxCell>
        <mxCell id="_5swKXEQVDg7zrb6wojc-3" value="&amp;nbsp;Server&amp;nbsp; " style="image;html=1;image=img/lib/clip_art/computers/Server_128x128.png;fontColor=#000000;labelBackgroundColor=#FFFF33;labelBorderColor=#999900;verticalAlign=top;horizontal=1;fontSize=12;labelPosition=center;verticalLabelPosition=bottom;align=center;rounded=1;spacing=0;" vertex="1" parent="1">
          <mxGeometry x="466" y="388" width="70" height="70" as="geometry" />
        </mxCell>
        <mxCell id="_5swKXEQVDg7zrb6wojc-30" value="" style="edgeStyle=orthogonalEdgeStyle;rounded=1;orthogonalLoop=1;jettySize=auto;html=1;shape=link;" edge="1" parent="1" source="_5swKXEQVDg7zrb6wojc-11" target="_5swKXEQVDg7zrb6wojc-3">
          <mxGeometry relative="1" as="geometry" />
        </mxCell>
        <mxCell id="_5swKXEQVDg7zrb6wojc-11" value="Data base" style="image;html=1;image=img/lib/clip_art/computers/Database_128x128.png;rounded=1;imageBackground=none;labelBorderColor=#009900;fontColor=#000000;labelBackgroundColor=#00FF80;labelPosition=center;verticalLabelPosition=top;align=center;verticalAlign=bottom;" vertex="1" parent="1">
          <mxGeometry x="466" y="144" width="70" height="71" as="geometry" />
        </mxCell>
        <mxCell id="_5swKXEQVDg7zrb6wojc-29" value="The server can be a Physical or virtual" style="pointerEvents=1;shadow=0;dashed=0;html=1;strokeColor=none;labelPosition=center;verticalLabelPosition=bottom;verticalAlign=top;outlineConnect=0;align=center;shape=mxgraph.office.servers.virtual_web_server;fillColor=#2072B8;fontColor=#FFFFFF;labelBackgroundColor=#007FFF;labelBorderColor=#0000FF;rounded=1;" vertex="1" parent="1">
          <mxGeometry x="133" y="388" width="67" height="70" as="geometry" />
        </mxCell>
        <mxCell id="_5swKXEQVDg7zrb6wojc-37" style="edgeStyle=orthogonalEdgeStyle;rounded=1;orthogonalLoop=1;jettySize=auto;html=1;entryX=0;entryY=0.5;entryDx=0;entryDy=0;exitX=0.5;exitY=1;exitDx=0;exitDy=0;dashed=1;startArrow=classic;startFill=1;endArrow=none;endFill=0;" edge="1" parent="1" source="_5swKXEQVDg7zrb6wojc-33" target="_5swKXEQVDg7zrb6wojc-3">
          <mxGeometry relative="1" as="geometry" />
        </mxCell>
        <mxCell id="_5swKXEQVDg7zrb6wojc-33" value="&amp;nbsp;Server runs an OS&lt;span style=&quot;white-space: pre;&quot;&gt;&#x9;&lt;/span&gt;" style="image;perimeter=ellipsePerimeter;html=1;align=center;shadow=0;dashed=0;spacingTop=3;image=img/lib/active_directory/web_server.svg;horizontal=1;labelPosition=center;verticalLabelPosition=top;verticalAlign=bottom;labelBorderColor=#3333FF;labelBackgroundColor=#007FFF;fontColor=#FFFFFF;spacing=2;spacingLeft=0;spacingBottom=0;rounded=1;" vertex="1" parent="1">
          <mxGeometry x="254" y="276" width="70" height="70" as="geometry" />
        </mxCell>
        <mxCell id="_5swKXEQVDg7zrb6wojc-43" value="web serverâ€™s role is to serve web pages" style="outlineConnect=0;dashed=0;verticalLabelPosition=bottom;verticalAlign=top;align=center;html=1;shape=mxgraph.aws3.documents;fillColor=#0050ef;fontColor=#FFFFFF;strokeColor=#001DBC;labelBackgroundColor=#007FFF;labelBorderColor=#3333FF;" vertex="1" parent="1">
          <mxGeometry x="111" y="249" width="70" height="70" as="geometry" />
        </mxCell>
        <mxCell id="_5swKXEQVDg7zrb6wojc-44" value="" style="shape=image;html=1;verticalAlign=top;verticalLabelPosition=bottom;labelBackgroundColor=#ffffff;imageAspect=0;aspect=fixed;image=https://cdn1.iconfinder.com/data/icons/100-basic-for-user-interface/32/73-files-128.png" vertex="1" parent="1">
          <mxGeometry x="462" y="550" width="70" height="70" as="geometry" />
        </mxCell>
      </root>
    </mxGraphModel>
  </diagram>
</mxfile>
